<svg xmlns="http://www.w3.org/2000/svg" xmlns:xlink="http://www.w3.org/1999/xlink" width="500" zoomAndPan="magnify" viewBox="0 0 375 374.999991" height="500" preserveAspectRatio="xMidYMid meet" version="1.0"><defs><clipPath id="ffb6efb2c8"><path d="M 148 72 L 351.824219 72 L 351.824219 366 L 148 366 Z M 148 72 " clip-rule="nonzero"/></clipPath><clipPath id="99b72721aa"><path d="M 23.324219 9 L 227 9 L 227 303 L 23.324219 303 Z M 23.324219 9 " clip-rule="nonzero"/></clipPath></defs><g clip-path="url(#ffb6efb2c8)"><path fill="#506ffd" d="M 351.496094 364.800781 C 342.054688 349.753906 332.601562 334.707031 323.144531 319.660156 L 308.949219 297.140625 L 294.699219 274.617188 L 266.15625 229.601562 L 239.378906 187.433594 L 273.855469 136.808594 L 282.933594 123.496094 C 285.96875 119.066406 288.984375 114.625 292.042969 110.207031 L 310.378906 83.710938 L 317.792969 73 L 220.003906 72.34375 L 217.945312 76.027344 C 214.933594 81.421875 211.984375 86.847656 209.011719 92.265625 L 206.789062 96.332031 L 204.597656 100.421875 L 200.183594 108.574219 L 191.46875 124.933594 L 187.027344 133.375 C 185.332031 130.800781 183.636719 128.234375 181.941406 125.667969 L 176.742188 117.890625 L 171.492188 110.140625 L 166.242188 102.410156 L 160.917969 94.710938 C 157.351562 89.578125 153.734375 84.484375 150.0625 79.425781 C 149.957031 79.246094 149.804688 79.128906 149.601562 79.074219 C 149.398438 79.023438 149.203125 79.050781 149.023438 79.15625 C 148.84375 79.261719 148.726562 79.414062 148.671875 79.617188 C 148.617188 79.820312 148.644531 80.011719 148.75 80.195312 C 151.414062 85.839844 154.15625 91.449219 156.96875 97.027344 L 161.175781 105.390625 L 165.441406 113.726562 L 169.738281 122.035156 L 174.078125 130.316406 C 177 135.824219 179.914062 141.335938 182.871094 146.820312 L 187.144531 154.738281 L 192.230469 146.757812 C 195.550781 141.539062 198.792969 136.296875 202.074219 131.058594 L 211.828125 115.304688 L 216.664062 107.398438 L 219.082031 103.460938 L 221.476562 99.523438 C 223.898438 95.511719 226.324219 91.507812 228.726562 87.492188 C 230.644531 87.492188 289.109375 87.269531 291.429688 87.222656 L 281.382812 103.179688 C 278.527344 107.726562 275.621094 112.234375 272.738281 116.769531 L 264.0625 130.34375 L 229.320312 184.613281 L 227.507812 187.433594 L 229.320312 190.058594 L 259.441406 234.03125 L 289.632812 277.957031 L 304.726562 299.910156 L 319.875 321.839844 C 329.964844 336.476562 340.089844 351.082031 350.25 365.652344 C 350.363281 365.820312 350.523438 365.925781 350.722656 365.964844 C 350.925781 366.003906 351.109375 365.96875 351.28125 365.855469 C 351.449219 365.742188 351.558594 365.585938 351.597656 365.382812 C 351.640625 365.183594 351.605469 364.996094 351.496094 364.824219 Z M 351.496094 364.800781 " fill-opacity="1" fill-rule="nonzero"/></g><g clip-path="url(#99b72721aa)"><path fill="#506ffd" d="M 218.097656 277.648438 L 213.890625 269.28125 L 209.628906 260.953125 L 205.324219 252.644531 L 200.984375 244.363281 C 198.066406 238.847656 195.15625 233.335938 192.191406 227.855469 L 187.917969 219.933594 L 182.832031 227.921875 C 179.511719 233.132812 176.269531 238.382812 172.988281 243.621094 L 163.230469 259.371094 L 158.398438 267.28125 L 155.976562 271.21875 L 153.589844 275.15625 C 151.167969 279.167969 148.761719 283.175781 146.367188 287.183594 C 144.453125 287.183594 85.988281 287.414062 83.660156 287.460938 L 93.679688 271.507812 C 96.542969 266.957031 99.449219 262.441406 102.332031 257.914062 L 111.007812 244.335938 L 145.75 190.066406 L 147.554688 187.242188 L 145.75 184.617188 L 115.628906 140.738281 L 85.4375 96.902344 L 70.34375 74.996094 L 55.183594 53.117188 C 45.101562 38.519531 34.980469 23.949219 24.816406 9.40625 C 24.703125 9.242188 24.546875 9.140625 24.351562 9.097656 C 24.15625 9.058594 23.972656 9.089844 23.804688 9.195312 C 23.632812 9.308594 23.523438 9.460938 23.476562 9.664062 C 23.429688 9.863281 23.460938 10.050781 23.566406 10.226562 C 33.019531 25.25 42.46875 40.265625 51.921875 55.273438 L 66.117188 77.777344 L 80.363281 100.25 L 108.902344 145.179688 L 135.683594 187.25 L 101.226562 237.878906 L 92.152344 251.1875 C 89.113281 255.609375 86.105469 260.058594 83.042969 264.476562 L 64.707031 290.972656 L 57.296875 301.683594 L 155.085938 302.339844 L 157.152344 298.625 C 160.164062 293.230469 163.117188 287.800781 166.082031 282.386719 L 168.308594 278.320312 L 170.515625 274.242188 L 174.925781 266.09375 L 183.59375 249.75 L 188.039062 241.316406 L 193.125 249.007812 L 198.320312 256.785156 L 203.570312 264.542969 L 208.824219 272.273438 L 214.144531 279.972656 C 217.707031 285.101562 221.324219 290.195312 225 295.25 C 225.113281 295.40625 225.265625 295.503906 225.453125 295.539062 C 225.644531 295.578125 225.820312 295.546875 225.984375 295.449219 C 226.148438 295.351562 226.261719 295.210938 226.316406 295.027344 C 226.375 294.84375 226.363281 294.664062 226.28125 294.488281 C 223.636719 288.859375 220.910156 283.246094 218.097656 277.648438 Z M 218.097656 277.648438 " fill-opacity="1" fill-rule="nonzero"/></g></svg>